<svg width="74" height="74" viewBox="0 0 74 74" fill="none" xmlns="http://www.w3.org/2000/svg">
<rect x="0.5" y="0.5" width="73" height="73" rx="36.5" fill="#FF1515" fill-opacity="0.25"/>
<rect x="0.5" y="0.5" width="73" height="73" rx="36.5" stroke="#FF1418" stroke-dasharray="4 4"/>
<path d="M33.3665 32.6792L34.8272 38.026C35.4282 40.2259 38.5466 40.2308 39.1546 38.0329L40.6295 32.7009C40.9443 31.5629 40.7065 30.3417 39.9889 29.4041C38.4768 27.4283 35.4948 27.4332 33.9946 29.418C33.291 30.3489 33.0589 31.5536 33.3665 32.6792Z" fill="white" fill-opacity="0.5"/>
<path d="M38.9683 43.9971C38.9683 45.1445 38.2284 46.0747 36.9749 46.0747C35.7214 46.0747 35.0858 45.1445 35.0858 43.9971C35.0858 42.8497 35.7214 41.9196 36.9749 41.9196C38.2284 41.9196 38.9683 42.8497 38.9683 43.9971Z" fill="white" fill-opacity="0.5"/>
</svg>
