<svg width="40" height="41" viewBox="0 0 40 41" fill="none" xmlns="http://www.w3.org/2000/svg">
<path fill-rule="evenodd" clip-rule="evenodd" d="M18.205 34.375C15.0733 31.8117 8 25.125 8 17.0383C8.00137 15.5201 8.30408 14.0171 8.89057 12.6167C9.47707 11.2163 10.3357 9.94616 11.4167 8.88C13.6148 6.71174 16.5791 5.4973 19.6667 5.5C22.7543 5.4973 25.7185 6.71174 27.9167 8.88C28.9976 9.94621 29.8561 11.2163 30.4426 12.6168C31.0291 14.0172 31.3319 15.5201 31.3333 17.0383C31.3333 25.125 24.26 31.8117 21.1283 34.375L21.1222 34.38C20.6763 34.745 20.4518 34.9288 20.1183 35.0217C19.8583 35.095 19.475 35.095 19.215 35.0217C18.886 34.93 18.6632 34.7484 18.2291 34.3947L18.2291 34.3947L18.205 34.375ZM16.1298 19.0374C15.1916 18.0992 14.6646 16.8268 14.6646 15.5001C14.6646 14.1733 15.1916 12.9009 16.1298 11.9628C17.0679 11.0246 18.3403 10.4976 19.6671 10.4976C20.9938 10.4976 22.2662 11.0246 23.2044 11.9628C24.1425 12.9009 24.6696 14.1733 24.6696 15.5001C24.6696 16.8268 24.1425 18.0992 23.2044 19.0374C22.2662 19.9755 20.9938 20.5026 19.6671 20.5026C18.3403 20.5026 17.0679 19.9755 16.1298 19.0374Z" fill="white" fill-opacity="0.5"/>
</svg>
