<svg width="194" height="194" viewBox="0 0 194 194" fill="none" xmlns="http://www.w3.org/2000/svg">
<rect x="61" y="70" width="72" height="72" rx="16" fill="white" fill-opacity="0.1"/>
<rect x="61.5" y="70.5" width="71" height="71" rx="15.5" stroke="white" stroke-opacity="0.5"/>
<path d="M82.0039 108.84L81 94.3636M82.0039 108.84L101.079 122.001M82.0039 108.84L91.7086 101.383M81 94.3636L91.7086 90L110.783 97.8731M81 94.3636L91.7086 101.383M110.783 97.8731L113 115.001L101.079 122.001M110.783 97.8731L105.764 108.84M110.783 97.8731L91.7086 101.383M101.079 122.001L105.764 108.84M91.7086 101.383L105.764 108.84" stroke="white" stroke-opacity="0.5" stroke-width="3.33" stroke-linejoin="round"/>
<path d="M94.3333 158C94.3333 159.473 95.5272 160.667 97 160.667C98.4728 160.667 99.6667 159.473 99.6667 158C99.6667 156.527 98.4728 155.333 97 155.333C95.5272 155.333 94.3333 156.527 94.3333 158ZM97 142H96.5V158H97H97.5V142H97Z" fill="white" fill-opacity="0.5"/>
</svg>
