<svg width="72" height="91" viewBox="0 0 72 91" fill="none" xmlns="http://www.w3.org/2000/svg">
<rect x="0.5" y="0.5" width="71" height="71" rx="15.5" fill="#E4FCFF"/>
<rect x="0.5" y="0.5" width="71" height="71" rx="15.5" stroke="#00CA9A"/>
<path d="M21.0039 38.8401L20 24.3636M21.0039 38.8401L40.0787 52.0006M21.0039 38.8401L30.7086 31.3825M20 24.3636L30.7086 20L49.7834 27.8731M20 24.3636L30.7086 31.3825M49.7834 27.8731L52 45.0006L40.0787 52.0006M49.7834 27.8731L44.7637 38.8401M49.7834 27.8731L30.7086 31.3825M40.0787 52.0006L44.7637 38.8401M30.7086 31.3825L44.7637 38.8401" stroke="#100A28" stroke-width="3.33" stroke-linejoin="round"/>
<path d="M33.3333 88C33.3333 89.4728 34.5272 90.6667 36 90.6667C37.4728 90.6667 38.6667 89.4728 38.6667 88C38.6667 86.5272 37.4728 85.3333 36 85.3333C34.5272 85.3333 33.3333 86.5272 33.3333 88ZM36 72H35.5V88H36H36.5V72H36Z" fill="#00CA9A"/>
</svg>
