<svg width="25" height="24" viewBox="0 0 25 24" fill="none" xmlns="http://www.w3.org/2000/svg">
<path d="M14.5 10V17M10.5 10V17M6.5 6V17.8C6.5 18.92 6.5 19.48 6.718 19.908C6.90974 20.2843 7.21569 20.5903 7.592 20.782C8.019 21 8.579 21 9.697 21H15.303C16.421 21 16.98 21 17.407 20.782C17.784 20.59 18.09 20.284 18.282 19.908C18.5 19.48 18.5 18.921 18.5 17.803V6M6.5 6H8.5M6.5 6H4.5M18.5 6H16.5M18.5 6H20.5M8.5 6H16.5M8.5 6C8.5 5.068 8.5 4.602 8.652 4.235C8.7524 3.99227 8.89963 3.7717 9.08528 3.58588C9.27093 3.40005 9.49137 3.25262 9.734 3.152C10.102 3 10.568 3 11.5 3H13.5C14.432 3 14.898 3 15.265 3.152C15.5078 3.25251 15.7284 3.3999 15.9143 3.58572C16.1001 3.77155 16.2475 3.99218 16.348 4.235C16.5 4.602 16.5 5.068 16.5 6" stroke="#9D89FF" stroke-width="2" stroke-linecap="round" stroke-linejoin="round"/>
</svg>
