<svg width="24" height="25" viewBox="0 0 24 25" fill="none" xmlns="http://www.w3.org/2000/svg">
<path d="M14 10.9404V17.9404M10 10.9404V17.9404M6 6.94043V18.7404C6 19.8604 6 20.4204 6.218 20.8484C6.40974 21.2247 6.71569 21.5307 7.092 21.7224C7.519 21.9404 8.079 21.9404 9.197 21.9404H14.803C15.921 21.9404 16.48 21.9404 16.907 21.7224C17.284 21.5304 17.59 21.2244 17.782 20.8484C18 20.4204 18 19.8614 18 18.7434V6.94043M6 6.94043H8M6 6.94043H4M18 6.94043H16M18 6.94043H20M8 6.94043H16M8 6.94043C8 6.00843 8 5.54243 8.152 5.17543C8.2524 4.9327 8.39963 4.71213 8.58528 4.52631C8.77093 4.34048 8.99137 4.19305 9.234 4.09243C9.602 3.94043 10.068 3.94043 11 3.94043H13C13.932 3.94043 14.398 3.94043 14.765 4.09243C15.0078 4.19294 15.2284 4.34033 15.4143 4.52615C15.6001 4.71198 15.7475 4.93261 15.848 5.17543C16 5.54243 16 6.00843 16 6.94043" stroke="white" stroke-width="2" stroke-linecap="round" stroke-linejoin="round"/>
</svg>
