<svg width="24" height="24" viewBox="0 0 24 24" fill="none" xmlns="http://www.w3.org/2000/svg">
<path d="M4.7998 9.923C4.7998 14.775 9.04381 18.787 10.9228 20.325C11.1928 20.545 11.3278 20.657 11.5288 20.713C11.6848 20.757 11.9148 20.757 12.0708 20.713C12.2718 20.657 12.4068 20.546 12.6768 20.325C14.5558 18.787 18.7998 14.775 18.7998 9.923C18.7989 9.01204 18.6173 8.11031 18.2654 7.27005C17.9135 6.4298 17.3983 5.66773 16.7498 5.028C15.4309 3.72704 13.6524 2.99838 11.7998 3C9.94724 2.99838 8.1687 3.72704 6.84981 5.028C6.20122 5.66769 5.68605 6.42976 5.33415 7.27002C4.98225 8.11028 4.80063 9.01203 4.7998 9.923Z" stroke="white" stroke-width="2" stroke-linecap="round" stroke-linejoin="round"/>
<circle cx="11.7988" cy="14.1992" r="0.999" fill="white"/>
<rect x="10.7998" y="6.15039" width="1.998" height="6.15" rx="0.999" fill="white"/>
</svg>
