<svg width="90" height="91" viewBox="0 0 90 91" fill="none" xmlns="http://www.w3.org/2000/svg">
<rect x="0.5" y="0.690811" width="89" height="89" rx="44.5" fill="#412D91"/>
<rect x="0.5" y="0.690811" width="89" height="89" rx="44.5" stroke="#9D89FF"/>
<path d="M44.5625 50.6127C46.7995 50.6102 48.9441 49.7204 50.5259 48.1386C52.1077 46.5568 52.9975 44.4122 53 42.1752V31.6283C53 29.3905 52.1111 27.2444 50.5287 25.6621C48.9464 24.0798 46.8003 23.1908 44.5625 23.1908C42.3247 23.1908 40.1786 24.0798 38.5963 25.6621C37.0139 27.2444 36.125 29.3905 36.125 31.6283V42.1752C36.1275 44.4122 37.0173 46.5568 38.5991 48.1386C40.1809 49.7204 42.3255 50.6102 44.5625 50.6127ZM38.9375 31.6283C38.9375 30.1365 39.5301 28.7057 40.585 27.6508C41.6399 26.5959 43.0707 26.0033 44.5625 26.0033C46.0543 26.0033 47.4851 26.5959 48.54 27.6508C49.5949 28.7057 50.1875 30.1365 50.1875 31.6283V42.1752C50.1875 43.667 49.5949 45.0978 48.54 46.1527C47.4851 47.2076 46.0543 47.8002 44.5625 47.8002C43.0707 47.8002 41.6399 47.2076 40.585 46.1527C39.5301 45.0978 38.9375 43.667 38.9375 42.1752V31.6283Z" fill="#E4FCFF" stroke="#E4FCFF" stroke-width="3"/>
<path d="M57.1818 41.9017V46.6634C57.1818 53.4147 51.4926 57.6983 44.5 57.6983C37.5074 57.6983 31.8182 53.4147 31.8182 46.6634V41.9017H29V46.6634C29 54.4565 35.2021 59.667 43.0909 60.3567V67.9017H45.9091V60.3567C53.7979 59.667 60 54.4565 60 46.6634V41.9017H57.1818Z" fill="#E4FCFF" stroke="#E4FCFF" stroke-width="3"/>
</svg>
