<svg width="24" height="25" viewBox="0 0 24 25" fill="none" xmlns="http://www.w3.org/2000/svg">
<g id="solar:minimize-bold">
<path id="Vector" d="M20.8569 10.4869C21.0559 10.4869 21.2466 10.4079 21.3873 10.2672C21.5279 10.1266 21.6069 9.93579 21.6069 9.73688C21.6069 9.53796 21.5279 9.3472 21.3873 9.20655C21.2466 9.06589 21.0559 8.98688 20.8569 8.98688H16.8109L22.5309 3.26688C22.6675 3.12536 22.743 2.93587 22.7412 2.73923C22.7394 2.54258 22.6604 2.3545 22.5213 2.21551C22.3822 2.07652 22.194 1.99773 21.9974 1.99612C21.8007 1.9945 21.6113 2.07019 21.4699 2.20688L15.7499 7.92688V3.87888C15.7499 3.67996 15.6709 3.4892 15.5303 3.34855C15.3896 3.20789 15.1989 3.12888 14.9999 3.12888C14.801 3.12888 14.6103 3.20789 14.4696 3.34855C14.329 3.4892 14.2499 3.67996 14.2499 3.87888V9.73688C14.2499 10.1509 14.5859 10.4869 14.9999 10.4869H20.8569ZM3.14294 14.9869C2.94403 14.9869 2.75327 15.0659 2.61261 15.2065C2.47196 15.3472 2.39294 15.538 2.39294 15.7369C2.39294 15.9358 2.47196 16.1266 2.61261 16.2672C2.75327 16.4079 2.94403 16.4869 3.14294 16.4869H7.18894L1.46894 22.2069C1.39734 22.2761 1.34025 22.3589 1.30098 22.4504C1.26172 22.5419 1.24108 22.6403 1.24026 22.7399C1.23944 22.8395 1.25846 22.9383 1.29622 23.0304C1.33397 23.1226 1.3897 23.2063 1.46015 23.2767C1.53061 23.3471 1.61437 23.4027 1.70656 23.4404C1.79875 23.478 1.89752 23.497 1.9971 23.4961C2.09669 23.4952 2.19509 23.4744 2.28658 23.4351C2.37806 23.3957 2.46079 23.3385 2.52994 23.2669L8.24994 17.5469V21.5939C8.24994 21.7928 8.32896 21.9836 8.46961 22.1242C8.61027 22.2649 8.80103 22.3439 8.99994 22.3439C9.19885 22.3439 9.38962 22.2649 9.53027 22.1242C9.67093 21.9836 9.74994 21.7928 9.74994 21.5939V15.7369C9.74994 15.538 9.67093 15.3472 9.53027 15.2065C9.38962 15.0659 9.19885 14.9869 8.99994 14.9869H3.14294Z" fill="white"/>
</g>
</svg>
