<svg width="18" height="22" viewBox="0 0 18 22" fill="none" xmlns="http://www.w3.org/2000/svg">
<g id="poi">
<path id="Vector" d="M1.12305 8.78319C1.12305 13.9619 5.6528 18.244 7.65832 19.8856C7.9465 20.1204 8.09059 20.2399 8.30512 20.2997C8.47163 20.3467 8.71711 20.3467 8.88362 20.2997C9.09815 20.2399 9.24224 20.1215 9.53042 19.8856C11.5359 18.244 16.0657 13.9619 16.0657 8.78319C16.0648 7.81088 15.8709 6.84843 15.4953 5.9516C15.1197 5.05477 14.5699 4.24139 13.8777 3.55859C12.47 2.17004 10.5717 1.39231 8.59437 1.39405C6.61707 1.39231 4.71878 2.17004 3.31108 3.55859C2.61882 4.24136 2.06896 5.05473 1.69337 5.95157C1.31778 6.84841 1.12392 7.81088 1.12305 8.78319Z" stroke="white" stroke-width="2.13466" stroke-linecap="round" stroke-linejoin="round"/>
<path id="Subtract" fill-rule="evenodd" clip-rule="evenodd" d="M7.65832 19.8856C5.6528 18.244 1.12305 13.9619 1.12305 8.78319C1.12392 7.81088 1.31778 6.84841 1.69337 5.95157C2.06896 5.05473 2.61882 4.24136 3.31108 3.5586C4.71878 2.17004 6.61707 1.39231 8.59437 1.39405C10.5717 1.39231 12.47 2.17004 13.8777 3.5586C14.5699 4.24139 15.1197 5.05477 15.4953 5.95161C15.8709 6.84844 16.0648 7.81088 16.0657 8.78319C16.0657 13.9619 11.5359 18.244 9.53042 19.8856L9.5265 19.8888L9.52648 19.8888C9.24092 20.1225 9.09717 20.2402 8.88362 20.2997C8.71711 20.3467 8.47163 20.3467 8.30512 20.2997C8.09446 20.241 7.95173 20.1247 7.67379 19.8982L7.67377 19.8982L7.65832 19.8856ZM6.32979 10.0632C5.729 9.46241 5.39148 8.64757 5.39148 7.79792C5.39148 6.94827 5.729 6.13343 6.32979 5.53263C6.93058 4.93184 7.74543 4.59432 8.59508 4.59432C9.44472 4.59432 10.2596 4.93184 10.8604 5.53263C11.4612 6.13343 11.7987 6.94827 11.7987 7.79792C11.7987 8.64757 11.4612 9.46241 10.8604 10.0632C10.2596 10.664 9.44472 11.0015 8.59508 11.0015C7.74543 11.0015 6.93058 10.664 6.32979 10.0632Z" fill="white"/>
</g>
</svg>
