<svg width="17" height="20" viewBox="0 0 17 20" fill="none" xmlns="http://www.w3.org/2000/svg">
<g id="poi">
<path id="Vector" d="M1.7998 7.923C1.7998 12.775 6.04381 16.787 7.92281 18.325C8.19281 18.545 8.32781 18.657 8.52881 18.713C8.68481 18.757 8.91481 18.757 9.07081 18.713C9.27181 18.657 9.40681 18.546 9.67681 18.325C11.5558 16.787 15.7998 12.775 15.7998 7.923C15.7989 7.01204 15.6173 6.11031 15.2654 5.27005C14.9135 4.4298 14.3983 3.66773 13.7498 3.028C12.4309 1.72704 10.6524 0.99838 8.79981 1C6.94724 0.99838 5.1687 1.72704 3.84981 3.028C3.20122 3.66769 2.68605 4.42976 2.33415 5.27002C1.98225 6.11028 1.80063 7.01203 1.7998 7.923Z" stroke="white" stroke-width="2" stroke-linecap="round" stroke-linejoin="round"/>
<path id="Vector_2" d="M6.80078 6.99951C6.80078 7.52994 7.0115 8.03865 7.38657 8.41372C7.76164 8.7888 8.27035 8.99951 8.80078 8.99951C9.33121 8.99951 9.83992 8.7888 10.215 8.41372C10.5901 8.03865 10.8008 7.52994 10.8008 6.99951C10.8008 6.46908 10.5901 5.96037 10.215 5.5853C9.83992 5.21023 9.33121 4.99951 8.80078 4.99951C8.27035 4.99951 7.76164 5.21023 7.38657 5.5853C7.0115 5.96037 6.80078 6.46908 6.80078 6.99951Z" stroke="white" stroke-width="2" stroke-linecap="round" stroke-linejoin="round"/>
</g>
</svg>
