<svg width="24" height="25" viewBox="0 0 24 25" fill="none" xmlns="http://www.w3.org/2000/svg">
<path d="M21 11.9409C20.7348 11.9409 20.4804 12.0463 20.2929 12.2338C20.1054 12.4213 20 12.6757 20 12.9409C20.0119 14.8139 19.3703 16.6325 18.1857 18.0834C17.001 19.5342 15.3475 20.5266 13.51 20.8895C11.6724 21.2525 9.76578 20.9632 8.11851 20.0717C6.47123 19.1802 5.18641 17.7421 4.48533 16.0052C3.78425 14.2683 3.71079 12.3412 4.27762 10.556C4.84445 8.77075 6.01607 7.23905 7.5907 6.2247C9.16533 5.21034 11.0444 4.77683 12.9043 4.99883C14.7641 5.22083 16.4884 6.08444 17.78 7.44092H15.38C15.1148 7.44092 14.8604 7.54627 14.6729 7.73381C14.4854 7.92135 14.38 8.1757 14.38 8.44092C14.38 8.70613 14.4854 8.96049 14.6729 9.14802C14.8604 9.33556 15.1148 9.44092 15.38 9.44092H19.91C20.1752 9.44092 20.4296 9.33556 20.6171 9.14802C20.8046 8.96049 20.91 8.70613 20.91 8.44092V3.94092C20.91 3.6757 20.8046 3.42135 20.6171 3.23381C20.4296 3.04627 20.1752 2.94092 19.91 2.94092C19.6448 2.94092 19.3904 3.04627 19.2029 3.23381C19.0154 3.42135 18.91 3.6757 18.91 3.94092V5.71092C17.2447 4.11898 15.0808 3.15087 12.784 2.97025C10.4873 2.78962 8.19863 3.40756 6.30492 4.71961C4.41121 6.03165 3.02861 7.95732 2.39083 10.1711C1.75305 12.3849 1.89921 14.751 2.80461 16.8694C3.71001 18.9879 5.31911 20.7288 7.3599 21.7978C9.40069 22.8668 11.748 23.1983 14.005 22.7364C16.2621 22.2745 18.2904 21.0474 19.7471 19.2626C21.2039 17.4778 21.9997 15.2447 22 12.9409C22 12.6757 21.8946 12.4213 21.7071 12.2338C21.5196 12.0463 21.2652 11.9409 21 11.9409Z" fill="white"/>
</svg>
