<svg width="16" height="18" viewBox="0 0 16 18" fill="none" xmlns="http://www.w3.org/2000/svg">
<g clip-path="url(#clip0_5242_32025)">
<path d="M8.24153 0.864281C8.0469 0.712777 7.80048 0.635402 7.54971 0.647052C7.29893 0.658702 7.06154 0.758554 6.88322 0.927384C6.7049 1.09621 6.59826 1.32209 6.58384 1.56152C6.56941 1.80096 6.64822 2.03702 6.80509 2.22428L7.79661 3.17142C6.32257 3.20962 4.89303 3.66205 3.6867 4.47213C2.48038 5.28221 1.55081 6.414 1.01421 7.72601C0.477614 9.03801 0.357801 10.472 0.669752 11.8487C0.981703 13.2254 1.71158 14.4837 2.76812 15.4663C3.82466 16.4489 5.16098 17.1122 6.61002 17.3732C8.05906 17.6343 9.5565 17.4815 10.9151 16.934C12.2738 16.3865 13.4333 15.4686 14.2488 14.295C15.0642 13.1215 15.4995 11.7443 15.5 10.3357C15.5 10.0781 15.3929 9.83099 15.2021 9.64881C15.0114 9.46663 14.7528 9.36428 14.4831 9.36428C14.2133 9.36428 13.9547 9.46663 13.764 9.64881C13.5732 9.83099 13.4661 10.0781 13.4661 10.3357C13.4661 11.3705 13.1442 12.3819 12.5413 13.2416C11.9383 14.1012 11.0816 14.7704 10.0799 15.1642C9.07811 15.5579 7.97646 15.6584 6.91478 15.453C5.85309 15.2475 4.87925 14.7454 4.11687 14.0103C3.35448 13.2752 2.83794 12.3403 2.6328 11.3243C2.42767 10.3082 2.5432 9.25687 2.96472 8.30367C3.38625 7.35047 4.09476 6.5384 5.00032 5.97054C5.90588 5.40269 6.96765 5.10466 8.05085 5.11428L6.80509 6.30428L6.77966 6.32857C6.60681 6.51616 6.51629 6.76018 6.52692 7.00989C6.53756 7.2596 6.64854 7.49578 6.83678 7.66935C7.02502 7.84291 7.27605 7.94049 7.53767 7.94181C7.79929 7.94313 8.05138 7.84808 8.24153 7.67642L11.0381 5.01714L11.0508 4.99285C11.1451 4.89528 11.2174 4.78029 11.2633 4.65498C11.3092 4.52967 11.3278 4.3967 11.3178 4.26428C11.3281 4.12614 11.3073 3.98749 11.2569 3.85764C11.2064 3.7278 11.1275 3.60975 11.0254 3.51142L8.24153 0.864281Z" fill="#9D89FF"/>
</g>
<defs>
<clipPath id="clip0_5242_32025">
<rect width="15" height="17" fill="white" transform="translate(0.5 0.5)"/>
</clipPath>
</defs>
</svg>
