<svg width="24" height="24" viewBox="0 0 24 24" fill="none" xmlns="http://www.w3.org/2000/svg">
<path d="M18.82 4.6875C19.819 5.61924 20.6165 6.74579 21.1633 7.99764C21.7101 9.2495 21.9947 10.6001 21.9994 11.9662C22.004 13.3322 21.7288 14.6848 21.1906 15.9404C20.6524 17.1959 19.8626 18.3279 18.87 19.2665M16.093 7.6125C16.6925 8.17155 17.1711 8.84752 17.4992 9.59868C17.8274 10.3499 17.9981 11.1603 18.0009 11.98C18.0037 12.7997 17.8386 13.6113 17.5156 14.3647C17.1926 15.1181 16.7186 15.7974 16.123 16.3605M7.481 15.4075L9.157 17.4805C10.03 18.5605 10.467 19.1015 10.849 19.1605C11.012 19.1855 11.1786 19.1699 11.3341 19.1149C11.4895 19.0599 11.629 18.9674 11.74 18.8455C12.001 18.5595 12.001 17.8645 12.001 16.4755V7.5255C12.001 6.1365 12.001 5.4425 11.741 5.1555C11.6299 5.03346 11.4902 4.94082 11.3346 4.88585C11.179 4.83089 11.0121 4.81531 10.849 4.8405C10.466 4.8995 10.029 5.4405 9.157 6.5205L7.48 8.5935C7.304 8.8125 7.216 8.9215 7.107 8.9995C7.0103 9.06916 6.90193 9.12098 6.787 9.1525C6.657 9.1885 6.517 9.1885 6.236 9.1885H4.813C4.056 9.1885 3.678 9.1885 3.373 9.2885C3.07618 9.38632 2.80642 9.55234 2.58535 9.77323C2.36428 9.99413 2.19805 10.2638 2.1 10.5605C2 10.8665 2 11.2445 2 12.0005C2 12.7565 2 13.1345 2.1 13.4405C2.19805 13.7372 2.36428 14.0069 2.58535 14.2278C2.80642 14.4487 3.07618 14.6147 3.373 14.7125C3.678 14.8125 4.056 14.8125 4.813 14.8125H6.236C6.516 14.8125 6.656 14.8125 6.786 14.8485C6.90093 14.88 7.0093 14.9318 7.106 15.0015C7.216 15.0795 7.305 15.1895 7.481 15.4075Z" stroke="#9D89FF" stroke-width="2" stroke-linecap="round" stroke-linejoin="round"/>
</svg>
