<svg width="24" height="25" viewBox="0 0 24 25" fill="none" xmlns="http://www.w3.org/2000/svg">
<path d="M18.82 5.62793C19.819 6.55967 20.6165 7.68622 21.1633 8.93807C21.7101 10.1899 21.9947 11.5405 21.9994 12.9066C22.004 14.2727 21.7288 15.6252 21.1906 16.8808C20.6524 18.1364 19.8626 19.2684 18.87 20.2069M16.093 8.55293C16.6925 9.11198 17.1711 9.78794 17.4992 10.5391C17.8274 11.2903 17.9981 12.1007 18.0009 12.9204C18.0037 13.7402 17.8386 14.5517 17.5156 15.3051C17.1926 16.0585 16.7186 16.7378 16.123 17.3009M7.481 16.3479L9.157 18.4209C10.03 19.5009 10.467 20.0419 10.849 20.1009C11.012 20.1259 11.1786 20.1103 11.3341 20.0553C11.4895 20.0004 11.629 19.9078 11.74 19.7859C12.001 19.4999 12.001 18.8049 12.001 17.4159V8.46593C12.001 7.07693 12.001 6.38293 11.741 6.09593C11.6299 5.97388 11.4902 5.88125 11.3346 5.82628C11.179 5.77132 11.0121 5.75574 10.849 5.78093C10.466 5.83993 10.029 6.38093 9.157 7.46093L7.48 9.53393C7.304 9.75293 7.216 9.86193 7.107 9.93993C7.0103 10.0096 6.90193 10.0614 6.787 10.0929C6.657 10.1289 6.517 10.1289 6.236 10.1289H4.813C4.056 10.1289 3.678 10.1289 3.373 10.2289C3.07618 10.3268 2.80642 10.4928 2.58535 10.7137C2.36428 10.9346 2.19805 11.2042 2.1 11.5009C2 11.8069 2 12.1849 2 12.9409C2 13.6969 2 14.0749 2.1 14.3809C2.19805 14.6777 2.36428 14.9473 2.58535 15.1682C2.80642 15.3891 3.07618 15.5551 3.373 15.6529C3.678 15.7529 4.056 15.7529 4.813 15.7529H6.236C6.516 15.7529 6.656 15.7529 6.786 15.7889C6.90093 15.8205 7.0093 15.8723 7.106 15.9419C7.216 16.0199 7.305 16.1299 7.481 16.3479Z" stroke="white" stroke-width="2" stroke-linecap="round" stroke-linejoin="round"/>
</svg>
