<svg width="25" height="27" viewBox="0 0 25 27" fill="none" xmlns="http://www.w3.org/2000/svg">
<g id="icons">
<path id="Vector" d="M19.6048 5.26904C20.6454 6.27843 21.4762 7.49885 22.0458 8.85503C22.6154 10.2112 22.9118 11.6744 22.9166 13.1543C22.9215 14.6342 22.6348 16.0994 22.0742 17.4596C21.5135 18.8199 20.6909 20.0462 19.6569 21.063M16.7642 8.43779C17.3887 9.04343 17.8872 9.77573 18.229 10.5895C18.5708 11.4033 18.7487 12.2812 18.7516 13.1693C18.7546 14.0573 18.5825 14.9365 18.246 15.7527C17.9096 16.5689 17.4159 17.3047 16.7954 17.9148M7.79336 16.8824L9.53919 19.1281C10.4486 20.2981 10.9038 20.8842 11.3017 20.9481C11.4715 20.9752 11.645 20.9583 11.807 20.8987C11.9689 20.8392 12.1142 20.7389 12.2298 20.6069C12.5017 20.297 12.5017 19.5441 12.5017 18.0394V8.34354C12.5017 6.83879 12.5017 6.08696 12.2309 5.77604C12.1151 5.64383 11.9697 5.54347 11.8075 5.48393C11.6454 5.42438 11.4716 5.4075 11.3017 5.43479C10.9027 5.49871 10.4475 6.08479 9.53919 7.25479L7.79232 9.50054C7.60898 9.73779 7.51732 9.85588 7.40378 9.94038C7.30305 10.0158 7.19016 10.072 7.07044 10.1061C6.93503 10.1451 6.78919 10.1451 6.49648 10.1451H5.01419C4.22565 10.1451 3.8319 10.1451 3.51419 10.2535C3.20501 10.3594 2.92401 10.5393 2.69373 10.7786C2.46344 11.0179 2.29029 11.31 2.18815 11.6315C2.08398 11.963 2.08398 12.3725 2.08398 13.1915C2.08398 14.0105 2.08398 14.42 2.18815 14.7515C2.29029 15.0729 2.46344 15.365 2.69373 15.6043C2.92401 15.8436 3.20501 16.0235 3.51419 16.1295C3.8319 16.2378 4.22565 16.2378 5.01419 16.2378H6.49648C6.78815 16.2378 6.93398 16.2378 7.0694 16.2768C7.18912 16.3109 7.30201 16.3671 7.40273 16.4425C7.51732 16.527 7.61003 16.6462 7.79336 16.8824Z" stroke="white" stroke-width="1.5" stroke-linecap="round" stroke-linejoin="round"/>
</g>
</svg>
