<svg width="15" height="15" viewBox="0 0 15 15" fill="none" xmlns="http://www.w3.org/2000/svg">
<g id="icons">
<path id="Ellipse 639" d="M8.6564 2.41455C11.6061 3.04068 13.4795 5.89185 12.8406 8.78283C12.2018 11.6738 9.29264 13.5098 6.34291 12.8837C3.39318 12.2576 1.51984 9.4064 2.15869 6.51543C2.79754 3.62445 5.70666 1.78843 8.6564 2.41455ZM6.59525 11.7418C8.90152 12.2314 11.176 10.7959 11.6755 8.53552C12.175 6.27518 10.7103 4.04597 8.40406 3.55643C6.09779 3.06689 3.82327 4.5024 3.32378 6.76273C2.82428 9.02307 4.28897 11.2523 6.59525 11.7418Z" fill="white"/>
<path id="Ellipse 640" d="M12.9603 7.42618C12.9402 6.95802 12.8576 6.49447 12.7144 6.0474L11.577 6.39716C11.6889 6.74671 11.7535 7.10914 11.7692 7.47517L12.9603 7.42618Z" fill="white"/>
<path id="Ellipse 641" d="M12.303 5.0928C12.0512 4.63839 11.7336 4.22211 11.3601 3.85692L10.5181 4.68407C10.8102 4.9696 11.0585 5.29507 11.2554 5.65036L12.303 5.0928Z" fill="white"/>
<path id="Ellipse 642" d="M10.4461 3.13708C9.98281 2.84645 9.47742 2.62604 8.94701 2.4833L8.63136 3.60994C9.04607 3.72155 9.44121 3.89388 9.80342 4.12111L10.4461 3.13708Z" fill="white"/>
<rect id="Rectangle 1001" x="6.7207" y="5.35547" width="1.56137" height="3.06053" fill="white"/>
<ellipse id="Ellipse 643" cx="7.50126" cy="5.35485" rx="0.780553" ry="0.765005" fill="white"/>
<ellipse id="Ellipse 644" cx="7.50126" cy="8.41735" rx="0.780553" ry="0.765005" fill="white"/>
<rect id="Rectangle 1002" width="1.53027" height="3.12274" transform="matrix(-0.00362909 0.999993 -0.999994 -0.00348595 9.06836 0.015625)" fill="white"/>
<ellipse id="Ellipse 645" cx="0.765006" cy="0.780553" rx="0.765006" ry="0.780553" transform="matrix(-0.00362909 0.999993 -0.999994 -0.00348595 9.84961 0.015625)" fill="white"/>
<ellipse id="Ellipse 646" cx="0.765006" cy="0.780553" rx="0.765006" ry="0.780553" transform="matrix(-0.00362909 0.999993 -0.999994 -0.00348595 6.72656 0.00390625)" fill="white"/>
</g>
</svg>
