<svg width="24" height="24" viewBox="0 0 24 24" fill="none" xmlns="http://www.w3.org/2000/svg">
<path d="M4.00341 13.9987C3.81418 13.9993 3.62864 13.9463 3.46836 13.8457C3.30809 13.7451 3.17964 13.6011 3.09796 13.4304C3.01628 13.2597 2.9847 13.0693 3.00691 12.8814C3.02912 12.6934 3.10419 12.5157 3.22341 12.3687L13.1234 2.1687C13.1977 2.08298 13.2989 2.02505 13.4104 2.00443C13.5219 1.98381 13.6371 2.00171 13.7371 2.0552C13.8371 2.10869 13.916 2.19459 13.9607 2.29881C14.0055 2.40302 14.0135 2.51935 13.9834 2.6287L12.0634 8.6487C12.0068 8.80022 11.9878 8.96322 12.008 9.1237C12.0282 9.28419 12.0871 9.43738 12.1795 9.57012C12.2719 9.70287 12.3952 9.81121 12.5387 9.88586C12.6822 9.9605 12.8417 9.99922 13.0034 9.9987H20.0034C20.1926 9.99805 20.3782 10.0511 20.5385 10.1517C20.6987 10.2523 20.8272 10.3963 20.9089 10.567C20.9905 10.7377 21.0221 10.9281 20.9999 11.116C20.9777 11.304 20.9026 11.4817 20.7834 11.6287L10.8834 21.8287C10.8091 21.9144 10.708 21.9723 10.5964 21.993C10.4849 22.0136 10.3697 21.9957 10.2697 21.9422C10.1697 21.8887 10.0908 21.8028 10.0461 21.6986C10.0013 21.5944 9.99333 21.4781 10.0234 21.3687L11.9434 15.3487C12 15.1972 12.019 15.0342 11.9988 14.8737C11.9786 14.7132 11.9198 14.56 11.8273 14.4273C11.7349 14.2945 11.6116 14.1862 11.4681 14.1115C11.3246 14.0369 11.1652 13.9982 11.0034 13.9987H4.00341Z" stroke="white" stroke-width="2" stroke-linecap="round" stroke-linejoin="round"/>
</svg>
