<svg width="40" height="40" viewBox="0 0 40 40" fill="none" xmlns="http://www.w3.org/2000/svg">
<path d="M11.6667 16.6667H16.6667M16.6667 16.6667H21.6667M16.6667 16.6667V11.6667M16.6667 16.6667V21.6667M25 25L35 35M16.6667 28.3333C15.1346 28.3333 13.6175 28.0316 12.202 27.4453C10.7866 26.859 9.50044 25.9996 8.41709 24.9162C7.33374 23.8329 6.47438 22.5468 5.88807 21.1313C5.30177 19.7158 5 18.1988 5 16.6667C5 15.1346 5.30177 13.6175 5.88807 12.202C6.47438 10.7866 7.33374 9.50044 8.41709 8.41709C9.50044 7.33374 10.7866 6.47438 12.202 5.88807C13.6175 5.30177 15.1346 5 16.6667 5C19.7609 5 22.7283 6.22916 24.9162 8.41709C27.1042 10.605 28.3333 13.5725 28.3333 16.6667C28.3333 19.7609 27.1042 22.7283 24.9162 24.9162C22.7283 27.1042 19.7609 28.3333 16.6667 28.3333Z" stroke="white" stroke-width="3.33333" stroke-linecap="round" stroke-linejoin="round"/>
</svg>
